<svg width="154" height="42" viewBox="0 0 154 42" fill="none" xmlns="http://www.w3.org/2000/svg">
<path d="M42.5668 29.42C42.5668 32.9386 40.1253 35.8864 36.845 36.6583C35.9321 39.7289 33.0893 41.9683 29.7256 41.9683C25.6229 41.9683 22.297 38.6388 22.297 34.5323V21.9834H35.1382C39.2409 21.9834 42.5668 25.3129 42.5668 29.42Z" fill="#FF7E00"/>
<path d="M0 29.42C0 32.9386 2.44153 35.8864 5.72185 36.6583C6.63475 39.7289 9.4775 41.9683 12.8412 41.9683C16.9439 41.9683 20.2698 38.6388 20.2698 34.5323V21.9834H7.42864C3.32593 21.9834 0 25.3129 0 29.42Z" fill="#FFE601"/>
<path d="M0 12.5482C0 9.02968 2.44153 6.08185 5.72185 5.30994C6.63475 2.23941 9.4775 0 12.8412 0C16.9439 0 20.2698 3.3295 20.2698 7.43591V19.9849H7.42864C3.32593 19.9849 0 16.6554 0 12.5482Z" fill="#0000FE"/>
<path d="M42.5668 12.5482C42.5668 9.02968 40.1253 6.08185 36.845 5.30994C35.9321 2.23941 33.0893 0 29.7256 0C25.6229 0 22.297 3.3295 22.297 7.43591V19.9849H35.1382C39.2409 19.9849 42.5668 16.6554 42.5668 12.5482Z" fill="#84DE02"/>
<path d="M68.6005 27.4272C68.6005 26.9697 68.5301 26.5592 68.3893 26.1956C68.2603 25.8202 68.0139 25.4801 67.6502 25.1751C67.2865 24.8584 66.7762 24.5476 66.1192 24.2426C65.4622 23.9376 64.6117 23.6209 63.5675 23.2925C62.4061 22.9171 61.3033 22.4949 60.2592 22.0257C59.2268 21.5565 58.3117 21.0111 57.5139 20.3894C56.7279 19.756 56.1061 19.0229 55.6486 18.1901C55.2028 17.3573 54.9799 16.3897 54.9799 15.2871C54.9799 14.2197 55.2145 13.252 55.6838 12.384C56.1531 11.5043 56.81 10.7536 57.6547 10.132C58.4994 9.49856 59.4966 9.01178 60.6463 8.67163C61.8078 8.33147 63.0807 8.16139 64.465 8.16139C66.3538 8.16139 68.0022 8.50155 69.41 9.18186C70.8178 9.86218 71.9088 10.7947 72.6831 11.9794C73.4692 13.164 73.8622 14.5188 73.8622 16.0436H68.6181C68.6181 15.293 68.4597 14.6361 68.1429 14.0731C67.8379 13.4983 67.3686 13.0467 66.7351 12.7183C66.1133 12.3899 65.3273 12.2257 64.377 12.2257C63.462 12.2257 62.6994 12.3664 62.0893 12.6479C61.4793 12.9177 61.0217 13.2872 60.7167 13.7564C60.4117 14.2138 60.2592 14.7299 60.2592 15.3047C60.2592 15.7387 60.3648 16.1316 60.5759 16.4835C60.7988 16.8354 61.1273 17.1638 61.5614 17.4688C61.9955 17.7737 62.5293 18.0611 63.1628 18.3309C63.7963 18.6007 64.5295 18.8646 65.3625 19.1226C66.7586 19.5449 67.9846 20.02 69.0404 20.5478C70.108 21.0756 70.9996 21.668 71.7153 22.3248C72.4309 22.9817 72.9706 23.7265 73.3342 24.5593C73.6979 25.3921 73.8798 26.3363 73.8798 27.392C73.8798 28.5063 73.6627 29.5033 73.2287 30.383C72.7946 31.2627 72.1669 32.0075 71.3457 32.6175C70.5245 33.2274 69.5449 33.6907 68.4069 34.0074C67.2689 34.3241 65.996 34.4825 64.5882 34.4825C63.3212 34.4825 62.0717 34.3183 60.8399 33.9898C59.6081 33.6497 58.4877 33.1394 57.4788 32.4591C56.4815 31.7788 55.6838 30.9108 55.0855 29.8552C54.4871 28.7995 54.188 27.5503 54.188 26.1076H59.4849C59.4849 26.9052 59.6081 27.5796 59.8544 28.1309C60.1008 28.6822 60.4469 29.1279 60.8927 29.4681C61.3502 29.8083 61.8899 30.0546 62.5117 30.2071C63.1452 30.3595 63.8374 30.4358 64.5882 30.4358C65.5033 30.4358 66.2541 30.3068 66.8407 30.0487C67.439 29.7907 67.879 29.4329 68.1605 28.9755C68.4538 28.518 68.6005 28.0019 68.6005 27.4272Z" fill="#FF7E00"/>
<path d="M79.8806 8.51328H84.3504L90.9319 27.3216L97.5134 8.51328H101.983L92.7269 34.1306H89.1369L79.8806 8.51328ZM77.4697 8.51328H81.9219L82.7314 26.8465V34.1306H77.4697V8.51328ZM99.9419 8.51328H104.412V34.1306H99.1324V26.8465L99.9419 8.51328Z" fill="#FF7E00"/>
<path d="M119.774 12.8943L112.806 34.1306H107.192L116.712 8.51328H120.285L119.774 12.8943ZM125.564 34.1306L118.578 12.8943L118.015 8.51328H121.622L131.195 34.1306H125.564ZM125.247 24.5945V28.7291H111.715V24.5945H125.247Z" fill="#FF7E00"/>
<path d="M148.107 25.6325H153.368C153.263 27.3568 152.788 28.8875 151.943 30.2246C151.11 31.5618 149.943 32.6057 148.441 33.3564C146.951 34.1071 145.156 34.4825 143.056 34.4825C141.414 34.4825 139.941 34.201 138.639 33.6379C137.337 33.0632 136.222 32.2421 135.296 31.1747C134.381 30.1074 133.682 28.8171 133.201 27.304C132.72 25.7909 132.48 24.096 132.48 22.2192V20.4422C132.48 18.5655 132.726 16.8706 133.219 15.3575C133.724 13.8326 134.439 12.5365 135.366 11.4691C136.305 10.4017 137.425 9.58067 138.727 9.00592C140.029 8.43117 141.484 8.1438 143.091 8.1438C145.227 8.1438 147.027 8.53087 148.494 9.30502C149.972 10.0792 151.116 11.1466 151.925 12.5072C152.747 13.8678 153.239 15.4161 153.404 17.1521H148.124C148.066 16.1199 147.86 15.246 147.508 14.5305C147.156 13.8033 146.623 13.2579 145.907 12.8943C145.203 12.5189 144.265 12.3312 143.091 12.3312C142.211 12.3312 141.443 12.4955 140.786 12.8239C140.129 13.1523 139.578 13.6508 139.132 14.3194C138.686 14.988 138.352 15.8325 138.129 16.853C137.918 17.8617 137.812 19.0464 137.812 20.407V22.2192C137.812 23.5447 137.912 24.7118 138.111 25.7205C138.311 26.7175 138.616 27.562 139.026 28.2541C139.449 28.9344 139.988 29.4505 140.645 29.8024C141.314 30.1425 142.118 30.3126 143.056 30.3126C144.159 30.3126 145.068 30.1367 145.784 29.7848C146.499 29.4329 147.045 28.9109 147.42 28.2189C147.808 27.5269 148.036 26.6647 148.107 25.6325Z" fill="#FF7E00"/>
</svg>
